<svg xmlns="http://www.w3.org/2000/svg" width="68.283" height="117.256" viewBox="0 0 68.283 117.256">
  <g id="icon-protozesana" transform="matrix(0.966, -0.259, 0.259, 0.966, -12.169, 20.024)">
    <g id="Group_160" data-name="Group 160" transform="translate(0 0)">
      <g id="Group_153" data-name="Group 153" transform="translate(0 49.376)">
        <g id="Group_152" data-name="Group 152">
          <g id="Path_16797" data-name="Path 16797" transform="translate(0 0)" fill="#f77a1e">
            <path d="M 37.36854553222656 50.89102935791016 L 37.2490348815918 50.87152862548828 C 34.99726486206055 50.56490707397461 32.90713500976562 48.9248161315918 31.36368560791016 46.25337600708008 L 31.36185455322266 46.25019836425781 L 31.36011505126953 46.24696731567383 C 30.74163055419922 45.10005950927734 29.63727378845215 43.9988899230957 28.25047492980957 43.14614868164062 C 22.69697189331055 39.91881942749023 20.79798889160156 36.33760452270508 18.96193504333496 32.87449645996094 L 18.95360565185547 32.85879898071289 C 17.3116340637207 29.67610740661621 15.76194477081299 26.67226791381836 11.04995536804199 24.06941795349121 C 7.458644866943359 22.1204776763916 4.406515121459961 19.74968719482422 1.979974985122681 17.02380752563477 C 1.01946496963501 15.9132776260376 0.335034966468811 14.61683750152588 -0.001685041468590498 13.27193737030029 C -0.3392650485038757 11.92358779907227 -0.3302150368690491 10.51556777954102 0.02446495927870274 9.200087547302246 L 0.02593495883047581 9.194637298583984 L 0.02764495834708214 9.189267158508301 C 1.106974959373474 5.802037239074707 3.989675045013428 3.360827445983887 8.595685005187988 1.933457493782043 C 9.985175132751465 1.499877452850342 11.26821517944336 0.8747074604034424 12.63301467895508 -0.03385252878069878 L 12.63796520233154 -0.03714253008365631 L 12.64306449890137 -0.04020253196358681 C 12.87215518951416 -0.1774525344371796 13.12893486022949 -0.250002533197403 13.38563537597656 -0.250002533197403 C 13.7863245010376 -0.250002533197403 14.14587497711182 -0.07726252824068069 14.37209510803223 0.2239274680614471 L 14.37983512878418 0.2342474758625031 L 14.38648509979248 0.2453074753284454 C 14.74779510498047 0.8466074466705322 14.63407516479492 1.589257478713989 14.1219654083252 1.972767472267151 L 14.1196346282959 1.974507451057434 L 14.11727523803711 1.976187467575073 C 12.53954982757568 3.101509809494019 11.02201843261719 3.843122005462646 9.342233657836914 4.309753894805908 C 4.460330009460449 5.902860641479492 2.876443147659302 8.246105194091797 2.407564878463745 9.931567192077637 C 1.909144997596741 11.82294750213623 2.449815034866333 13.90330791473389 3.854744911193848 15.49323749542236 L 3.857564926147461 15.49642753601074 L 3.860275030136108 15.49971771240234 C 5.007265090942383 16.89045715332031 7.614494800567627 19.58838653564453 12.18902492523193 22.03165817260742 C 17.59731483459473 25.04337692260742 19.53804588317871 28.80519676208496 21.09745407104492 31.82786750793457 C 22.94657135009766 35.52072143554688 24.62399673461914 38.34704208374023 29.40022468566895 41.11436080932617 C 31.09972381591797 42.01388931274414 32.55520248413086 43.43151092529297 33.49876403808594 45.10650634765625 C 34.63156509399414 47.08602905273438 36.0584831237793 48.28387832641602 37.51585388183594 48.4779167175293 C 37.60537338256836 48.48907852172852 37.69754409790039 48.49486923217773 37.78776550292969 48.49486923217773 C 38.34631729125977 48.49484634399414 38.88176727294922 48.26930999755859 39.29713821411133 47.85940933227539 C 39.31730270385742 47.80715942382812 39.31617736816406 47.65069198608398 39.26022338867188 47.53896713256836 C 39.2171630859375 47.45296859741211 39.17276382446289 47.38645935058594 39.12575531005859 47.31604766845703 C 39.07612991333008 47.24171829223633 39.02006149291992 47.15772247314453 38.96450042724609 47.04822540283203 C 38.00611114501953 45.45124053955078 37.32474899291992 43.71551895141602 36.9390869140625 41.88882827758789 C 36.63412475585938 40.6726188659668 36.12341690063477 39.38164901733398 35.46198654174805 38.15506744384766 C 31.20611572265625 30.26280784606934 29.30968475341797 24.12468719482422 26.43906402587891 14.83347702026367 L 26.43706512451172 14.82698726654053 L 26.43541526794434 14.82039737701416 C 26.20866584777832 13.91474723815918 25.92465400695801 13.00997734069824 25.62397575378418 12.05208778381348 C 25.53066253662109 11.75483417510986 25.43601608276367 11.4533224105835 25.34136772155762 11.14625072479248 C 25.2346076965332 10.87265396118164 25.2386531829834 10.5871410369873 25.35320472717285 10.31985759735107 C 25.48306465148926 10.0168571472168 25.74977493286133 9.766287803649902 26.08496475219727 9.632407188415527 C 26.21856498718262 9.579047203063965 26.35667419433594 9.551997184753418 26.49546432495117 9.551997184753418 C 26.9734058380127 9.551997184753418 27.41101455688477 9.873477935791016 27.61031532287598 10.37101745605469 L 27.6141357421875 10.38054752349854 L 27.61715507507324 10.39035701751709 C 27.78480529785156 10.93442726135254 27.93568420410156 11.46352767944336 28.08159446716309 11.97519779205322 C 28.28870582580566 12.70147705078125 28.48433494567871 13.38748741149902 28.71588516235352 14.08112716674805 C 31.67895126342773 23.54901504516602 33.46717834472656 29.26257514953613 37.60005569458008 36.91357803344727 C 38.38644027709961 38.22349548339844 38.95136260986328 39.65072631835938 39.32717514038086 41.27683639526367 C 39.71906661987305 42.93999862670898 40.3146858215332 44.42766571044922 41.09723663330078 45.69746780395508 L 41.1030158996582 45.70684814453125 L 41.10794448852539 45.71669769287109 L 41.25801467895508 46.01638793945312 L 41.40565490722656 46.31124496459961 C 41.9620246887207 47.31584548950195 41.83148956298828 48.52376556396484 41.07242584228516 49.38998794555664 L 41.06694412231445 49.39624786376953 L 41.06105422973633 49.40212631225586 C 40.17515563964844 50.28675842285156 39.010986328125 50.7739372253418 37.78299331665039 50.7739372253418 C 37.67720413208008 50.7739372253418 37.5001335144043 50.7739372253418 37.45619583129883 50.80352783203125 L 37.36854553222656 50.89102935791016 Z" stroke="none"/>
            <path d="M 37.28276443481445 50.62381744384766 C 37.38280487060547 50.5239372253418 37.58290481567383 50.5239372253418 37.78299331665039 50.5239372253418 C 38.98353576660156 50.5239372253418 40.08404541015625 50.02443695068359 40.88440322875977 49.22522735595703 C 41.58472442626953 48.4260368347168 41.68476486206055 47.32712936401367 41.18454360961914 46.42802810668945 C 41.08450317382812 46.22822570800781 40.98444366455078 46.02842712402344 40.88440322875977 45.82862854003906 C 40.08404541015625 44.52992630004883 39.4837646484375 43.03142929077148 39.08359527587891 41.33312606811523 C 38.78345489501953 40.03442764282227 38.28323364257812 38.53592681884766 37.38281631469727 37.03742599487305 C 33.28094482421875 29.44499778747559 31.48011589050293 23.75069808959961 28.47874450683594 14.16028785705566 C 28.07856559753418 12.96148777008057 27.7784252166748 11.76267719268799 27.37824440002441 10.4639778137207 C 27.17815399169922 9.9644775390625 26.67792892456055 9.664773941040039 26.17769432067871 9.864577293395996 C 25.67746543884277 10.064377784729 25.37733459472656 10.56387710571289 25.57742500305176 11.06337738037109 C 25.97761535644531 12.36208724975586 26.37778472900391 13.56088733673096 26.67792510986328 14.75967788696289 C 29.57925415039062 24.15029716491699 31.48011589050293 30.24419784545898 35.68203353881836 38.03640747070312 C 36.38235473632812 39.33511734008789 36.88258361816406 40.63381576538086 37.18272399902344 41.83260726928711 C 37.58290481567383 43.73071670532227 38.28322601318359 45.42901611328125 39.18362426757812 46.92751693725586 C 39.28368377685547 47.1273193359375 39.38372421264648 47.22722625732422 39.4837646484375 47.42702865600586 C 39.58381652832031 47.62681579589844 39.58381652832031 47.92652893066406 39.4837646484375 48.02641677856445 C 38.98354339599609 48.52591705322266 38.28326034545898 48.82564926147461 37.48285675048828 48.72572708129883 C 35.9821662902832 48.52591705322266 34.48148345947266 47.32711791992188 33.28094482421875 45.22920608520508 C 32.38053512573242 43.63081741333008 30.97988510131836 42.23220825195312 29.27910423278809 41.3331184387207 C 24.27682495117188 38.43600845336914 22.5760440826416 35.33910751342773 20.87527465820312 31.9424877166748 C 19.17449569702148 28.64577674865723 17.27363586425781 25.14927673339844 12.07124519348145 22.25217819213867 C 7.769284725189209 19.95448684692383 5.068045139312744 17.35707664489746 3.667404890060425 15.65877723693848 C 2.166714906692505 13.96047782897949 1.666494965553284 11.76267719268799 2.166714906692505 9.864567756652832 C 2.666944980621338 8.066367149353027 4.367724895477295 5.66876745223999 9.269965171813965 4.070367336273193 C 11.07078456878662 3.570867538452148 12.5714750289917 2.771657466888428 13.97210502624512 1.772657513618469 C 14.37229537963867 1.472967505455017 14.47233486175537 0.8735674619674683 14.17219543457031 0.3740674555301666 C 13.87205219268799 -0.02554266341030598 13.27178287506104 -0.1254423856735229 12.77155494689941 0.1742574721574783 C 11.57101535797119 0.9734574556350708 10.27041530609131 1.672757506370544 8.669685363769531 2.172257423400879 C 2.867034912109375 3.970457553863525 0.9661649465560913 7.067367553710938 0.2658449709415436 9.265167236328125 C -0.4344750344753265 11.86256790161133 0.2658449709415436 14.65976715087891 2.166704893112183 16.85757827758789 C 3.767444849014282 18.65578842163086 6.568725109100342 21.35308837890625 11.1708345413208 23.85058784484863 C 15.87296485900879 26.4479866027832 17.47370529174805 29.44498825073242 19.17448425292969 32.74169921875 C 20.97530555725098 36.1383056640625 22.87616539001465 39.73470687866211 28.37869453430176 42.9315071105957 C 29.67928504943848 43.73070907592773 30.87982559204102 44.82961654663086 31.58015441894531 46.1283073425293 C 33.08083343505859 48.72571563720703 35.08175659179688 50.3241081237793 37.28276443481445 50.62381744384766 M 37.46074676513672 51.15266799926758 L 37.21530532836914 51.11924743652344 C 34.88522338867188 50.80195617675781 32.73020553588867 49.11830902099609 31.14721488952637 46.37843704223633 L 31.14006423950195 46.36562728881836 C 30.5424747467041 45.25745010375977 29.47080612182617 44.19045639038086 28.12195205688477 43.36059951782227 C 25.61186981201172 41.90156936645508 23.61119842529297 40.22440719604492 22.00564575195312 38.23335647583008 C 20.58814430236816 36.47550582885742 19.64914512634277 34.70439910888672 18.74105453491211 32.99160766601562 L 18.73013496398926 32.9709358215332 C 17.10736465454102 29.82543754577637 15.5745849609375 26.85437774658203 10.92907524108887 24.28825759887695 C 7.313904762268066 22.32636833190918 4.239065170288086 19.93757820129395 1.793244957923889 17.19002723693848 L 1.788524985313416 17.18465805053711 C 0.8048849701881409 16.04734802246094 0.1019749566912651 14.71534729003906 -0.2441950440406799 13.33265781402588 C -0.5921050310134888 11.9430570602417 -0.5826650261878967 10.49153709411621 -0.2169150412082672 9.135007858276367 L -0.2105550467967987 9.113367080688477 C 0.2566949725151062 7.646997451782227 1.068674921989441 6.334837436676025 2.20282506942749 5.213337421417236 C 3.727915048599243 3.705247402191162 5.853885173797607 2.521397352218628 8.521684646606445 1.694667458534241 C 9.887354850769043 1.26851749420166 11.15003490447998 0.6530474424362183 12.49448490142822 -0.2419525235891342 L 12.51459503173828 -0.2546625435352325 C 12.78250503540039 -0.4151625335216522 13.08370494842529 -0.5000025033950806 13.38563537597656 -0.5000025033950806 C 13.86570453643799 -0.5000025033950806 14.29811477661133 -0.2908625304698944 14.57199478149414 0.07379747182130814 L 14.58748531341553 0.09442746639251709 L 14.60077476501465 0.1165374666452408 C 15.02838516235352 0.8281774520874023 14.88696479797363 1.712207436561584 14.27181529998779 2.172877550125122 L 14.26244449615479 2.179727554321289 C 12.66193103790283 3.321293592453003 11.1211462020874 4.074381828308105 9.414542198181152 4.549139022827148 C 4.645208358764648 6.106785774230957 3.102787256240845 8.369649887084961 2.649309635162354 9.995392799377441 C 2.172819137573242 11.80829620361328 2.693358659744263 13.80136966705322 4.04208517074585 15.32769775390625 L 4.053144931793213 15.34064769744873 C 5.188385009765625 16.71714782714844 7.770235061645508 19.38814735412598 12.30680465698242 21.81113815307617 L 12.31450462341309 21.81534767150879 C 17.7848949432373 24.86168670654297 19.74480438232422 28.66068840026855 21.31962585449219 31.71324729919434 L 21.32235527038574 31.71861839294434 C 23.14994812011719 35.3685188293457 24.80845832824707 38.16386032104492 29.52132415771484 40.89559936523438 C 31.26086807250977 41.81736755371094 32.75056076049805 43.26893997192383 33.71657562255859 44.98380661010742 C 34.80893325805664 46.89264678955078 36.17052459716797 48.04658889770508 37.54884338378906 48.23009872436523 C 37.62606430053711 48.23972702026367 37.70781326293945 48.24486923217773 37.78777313232422 48.24486923217773 C 38.36844253540039 48.24483871459961 38.79001235961914 47.98551940917969 39.05793762207031 47.74175262451172 C 39.055419921875 47.71062088012695 39.04828643798828 47.67406845092773 39.03669357299805 47.65090560913086 C 39.00059509277344 47.57882690429688 38.96407318115234 47.52411651611328 38.9178352355957 47.45485687255859 C 38.86547470092773 47.37642288208008 38.80645751953125 47.28803253173828 38.7457160949707 47.16949462890625 C 37.77618789672852 45.55208969116211 37.08647537231445 43.79460144042969 36.69549560546875 41.94527053833008 C 36.3953857421875 40.75019073486328 35.89286041259766 39.4808235168457 35.241943359375 38.27372741699219 C 30.9744758605957 30.35995674133301 29.07516479492188 24.21253776550293 26.20020484924316 14.90727710723877 L 26.19289588928223 14.88111782073975 C 25.96793556213379 13.9826078414917 25.68499565124512 13.08123779296875 25.38544464111328 12.12695789337158 C 25.29285430908203 11.83197784423828 25.19893836975098 11.53279495239258 25.10500335693359 11.22816562652588 C 24.97938919067383 10.89923572540283 24.98573684692383 10.54261779785156 25.12341499328613 10.2213773727417 C 25.27921485900879 9.857847213745117 25.59588432312012 9.558547019958496 25.99223518371582 9.400247573852539 C 26.15543556213379 9.335057258605957 26.32474517822266 9.301997184753418 26.49546432495117 9.301997184753418 C 27.07617568969727 9.301997184753418 27.6048755645752 9.685117721557617 27.8423957824707 10.27804756164551 L 27.85607528686523 10.31673717498779 C 28.02450561523438 10.86333751678467 28.17574501037598 11.39371776580811 28.3220157623291 11.90663719177246 C 28.52834510803223 12.63017749786377 28.72322463989258 13.3135871887207 28.9530143737793 14.00196743011475 L 28.95592498779297 14.01094722747803 C 31.91252136230469 23.45829010009766 33.69752502441406 29.16210556030273 37.81735610961914 36.78982925415039 C 38.6158332824707 38.12114334106445 39.189453125 39.57063674926758 39.57075500488281 41.22053909301758 C 39.95624542236328 42.85652923583984 40.54159545898438 44.31935882568359 41.31006622314453 45.56630706787109 L 41.33149337768555 45.60476684570312 L 41.62700271606445 46.19491958618164 C 42.23200607299805 47.29195022583008 42.08868026733398 48.60959243774414 41.26045608520508 49.55475616455078 L 41.23770523071289 49.57903671264648 C 40.30460357666016 50.51079559326172 39.07769393920898 51.0239372253418 37.78299331665039 51.0239372253418 C 37.72230911254883 51.0239372253418 37.6373405456543 51.0239372253418 37.58465957641602 51.02894973754883 L 37.46074676513672 51.15266799926758 Z" stroke="none" fill="#f77a1e"/>
          </g>
        </g>
      </g>
      <g id="Group_154" data-name="Group 154" transform="translate(10.971 45.554)">
        <g id="Path_16798" data-name="Path 16798" transform="translate(0 0)" fill="#f77a1e">
          <path d="M 9.204193115234375 18.63162040710449 C 6.79105281829834 18.63162040710449 4.420672416687012 17.64949989318848 2.529712677001953 15.86618995666504 L 2.527112722396851 15.86373996734619 L 2.524582624435425 15.86122035980225 C 0.7353626489639282 14.07460021972656 -0.2500073611736298 11.70567035675049 -0.2500073611736298 9.190810203552246 C -0.2500073611736298 6.675940036773682 0.7353626489639282 4.307010173797607 2.524582624435425 2.520390272140503 C 4.313702583312988 0.7338802218437195 6.685892581939697 -0.2499997913837433 9.204193115234375 -0.2499997913837433 C 11.72249221801758 -0.2499997913837433 14.09469223022461 0.7338802218437195 15.88382244110107 2.520390272140503 C 17.67304229736328 4.30702018737793 18.65841293334961 6.675950050354004 18.65841293334961 9.190830230712891 C 18.65840339660645 11.70569038391113 17.67304229736328 14.07460975646973 15.88382244110107 15.86122035980225 C 14.09470272064209 17.64773941040039 11.72249221801758 18.63162040710449 9.204193115234375 18.63162040710449 Z M 4.275364398956299 14.10565376281738 C 5.687406063079834 15.41337013244629 7.437703609466553 16.13360977172852 9.204193115234375 16.13360977172852 C 11.10003280639648 16.13360977172852 12.80331230163574 15.43344974517822 14.1298828125 14.10881042480469 C 15.43741226196289 12.80319023132324 16.15749359130859 11.05661010742188 16.15749359130859 9.190810203552246 C 16.15749359130859 7.32649040222168 15.43860149383545 5.581249237060547 14.1330509185791 4.275976181030273 C 12.72100925445557 2.96824049949646 10.9706916809082 2.248000144958496 9.204193115234375 2.248000144958496 C 7.308362483978271 2.248000144958496 5.605092525482178 2.948170185089111 4.278522491455078 4.272809982299805 C 2.970992565155029 5.57843017578125 2.250902652740479 7.325010299682617 2.250902652740479 9.190800666809082 C 2.250902652740479 11.05513000488281 2.969803333282471 12.80037117004395 4.275364398956299 14.10565376281738 Z" stroke="none"/>
          <path d="M 9.204193115234375 18.38162040710449 C 11.70534229278564 18.38162040710449 14.00639247894287 17.38261985778809 15.70717239379883 15.68430995941162 C 19.30882263183594 12.08792018890381 19.30882263183594 6.293710231781006 15.70717239379883 2.69730019569397 C 14.00639247894287 0.9990001916885376 11.70534229278564 2.035522470578144e-07 9.204193115234375 2.035522470578144e-07 C 6.703052520751953 2.035522470578144e-07 4.402002811431885 0.9990001916885376 2.701232671737671 2.69730019569397 C -0.9004173278808594 6.293700218200684 -0.9004173278808594 12.08791065216064 2.701232671737671 15.68430995941162 C 4.502062797546387 17.38261985778809 6.803102493286133 18.38162040710449 9.204193115234375 18.38162040710449 M 9.204193115234375 1.998000144958496 C 11.10507297515869 1.998000144958496 12.90589237213135 2.797200202941895 14.30654239654541 4.09591007232666 C 17.10781288146973 6.893110275268555 17.10781288146973 11.48851013183594 14.30653285980225 14.285719871521 C 12.90589237213135 15.68430995941162 11.10507297515869 16.38360977172852 9.204193115234375 16.38360977172852 C 7.303322792053223 16.38360977172852 5.502512454986572 15.58441066741943 4.101872444152832 14.285719871521 C 1.300582647323608 11.48851013183594 1.300582647323608 6.893110275268555 4.101872444152832 4.09591007232666 C 5.502512454986572 2.69730019569397 7.303332805633545 1.998000144958496 9.204193115234375 1.998000144958496 M 9.204193115234375 18.88162040710449 C 6.727022647857666 18.88162040710449 4.295732498168945 17.87531089782715 2.358182668685913 16.04807090759277 L 2.347932577133179 16.03812026977539 C 0.5114126801490784 14.204270362854 -0.5000073313713074 11.77252006530762 -0.5000073313713074 9.190810203552246 C -0.5000073313713074 6.609090328216553 0.5114126801490784 4.177340030670166 2.347932577133179 2.343490123748779 C 4.184252738952637 0.509840190410614 6.619182586669922 -0.4999997913837433 9.204193115234375 -0.4999997913837433 C 11.78920269012451 -0.4999997913837433 14.22414302825928 0.509840190410614 16.06047248840332 2.343490123748779 C 17.89699172973633 4.177340030670166 18.90841293334961 6.609110355377197 18.90841293334961 9.190830230712891 C 18.90840339660645 11.7725305557251 17.89699172973633 14.20427989959717 16.06046295166016 16.03812026977539 C 14.22414302825928 17.87178039550781 11.78920269012451 18.88162040710449 9.204193115234375 18.88162040710449 Z M 4.448596000671387 13.92533302307129 C 5.813712596893311 15.18822288513184 7.502242088317871 15.88360977172852 9.204193115234375 15.88360977172852 C 11.03236293792725 15.88360977172852 12.67455291748047 15.20872020721436 13.95324230194092 13.93191051483154 C 15.21346282958984 12.6735200881958 15.90749263763428 10.98976039886475 15.90749263763428 9.190810203552246 C 15.90749263763428 7.39493465423584 15.2158203125 5.713853359222412 13.95968627929688 4.45616340637207 C 12.59461307525635 3.193411111831665 10.90604877471924 2.498000144958496 9.204193115234375 2.498000144958496 C 7.376032829284668 2.498000144958496 5.733852863311768 3.172890186309814 4.455172538757324 4.44972038269043 C 3.194942712783813 5.708110332489014 2.500902652740479 7.391849994659424 2.500902652740479 9.190810203552246 C 2.500902652740479 10.98657608032227 3.192597627639771 12.66766834259033 4.448596000671387 13.92533302307129 Z" stroke="none" fill="#f77a1e"/>
        </g>
      </g>
      <g id="Group_155" data-name="Group 155" transform="translate(46.387 0)">
        <g id="Path_16799" data-name="Path 16799" transform="translate(0 0)" fill="#f77a1e">
          <path d="M 14.30653762817383 28.82143974304199 C 12.4403076171875 28.82143974304199 10.60789775848389 28.46236991882324 8.860207557678223 27.75419044494629 C 7.041517734527588 27.01725006103516 5.414807796478271 25.94005966186523 4.025267601013184 24.55254936218262 C 1.268317580223083 21.79960060119629 -0.250002384185791 18.15344047546387 -0.250002384185791 14.28571033477783 C -0.250002384185791 10.41800022125244 1.268317580223083 6.77184009552002 4.025267601013184 4.018899917602539 C 6.782127857208252 1.26606011390686 10.43341732025146 -0.2499999403953552 14.30653762817383 -0.2499999403953552 C 18.17965698242188 -0.2499999403953552 21.83094787597656 1.26606011390686 24.58780670166016 4.018899917602539 C 27.34475708007812 6.77184009552002 28.86307716369629 10.41800022125244 28.86307716369629 14.28571033477783 C 28.86307716369629 18.1534309387207 27.34474754333496 21.79958915710449 24.58779716491699 24.55253982543945 C 21.83095741271973 27.30537986755371 18.17966842651367 28.82143974304199 14.30653762817383 28.82143974304199 Z M 5.678249359130859 5.772263526916504 C 0.9992903470993042 10.54456615447998 0.9994946718215942 18.22717666625977 5.679167747497559 22.90002059936523 C 8.001277923583984 25.17141914367676 11.06141757965088 26.42333984375 14.29403781890869 26.42333984375 C 17.52567672729492 26.42333984375 20.55851745605469 25.17206954956055 22.8338680267334 22.90002059936523 C 27.51357841491699 18.1297492980957 27.5143871307373 10.44501972198486 22.8338680267334 5.77131986618042 C 20.55852699279785 3.499279975891113 17.53012847900391 2.248010158538818 14.30653762817383 2.248010158538818 C 11.11446666717529 2.248010158538818 8.050447463989258 3.499504327774048 5.678249359130859 5.772263526916504 Z" stroke="none"/>
          <path d="M 14.30653762817383 28.57143974304199 C 18.00822830200195 28.57143974304199 21.60987854003906 27.1728401184082 24.41114807128906 24.37562942504883 C 30.01371765136719 18.78121948242188 30.01371765136719 9.790209770202637 24.41115760803223 4.195809841156006 C 18.8085994720459 -1.398599624633789 9.804487228393555 -1.398599624633789 4.20191764831543 4.195809841156006 C -1.400642395019531 9.790209770202637 -1.400642395019531 18.78123092651367 4.20191764831543 24.37564086914062 C 7.003207683563232 27.1728401184082 10.70488739013672 28.57143974304199 14.30653762817383 28.57143974304199 M 14.30653762817383 1.998010039329529 C 17.50800704956055 1.998010039329529 20.60941696166992 3.196799993515015 23.01051712036133 5.594409942626953 C 27.81270790100098 10.38961029052734 27.81270790100098 18.18181991577148 23.01051712036133 23.07693099975586 C 18.20831871032715 27.87214279174805 10.40475749969482 27.87213897705078 5.502517700195312 23.07693099975586 C 0.7003176212310791 18.28173065185547 0.7003176212310791 10.48952007293701 5.502517700195312 5.594409942626953 C 8.003657341003418 3.196810007095337 11.20512771606445 1.998010039329529 14.30653762817383 1.998010039329529 M 14.30653762817383 29.07143974304199 C 12.40797805786133 29.07143974304199 10.54397773742676 28.70620918273926 8.766317367553711 27.98588943481445 C 6.916487693786621 27.23633003234863 5.261937618255615 26.14071083068848 3.848617553710938 24.72945022583008 C 1.044367671012878 21.92927932739258 -0.500002384185791 18.22027969360352 -0.500002384185791 14.28571033477783 C -0.500002384185791 10.35115051269531 1.044367671012878 6.642169952392578 3.848617553710938 3.842000007629395 C 6.652697563171387 1.042020082473755 10.36672782897949 -0.4999999403953552 14.30653762817383 -0.4999999403953552 C 18.24635696411133 -0.4999999403953552 21.96038818359375 1.042020082473755 24.76445770263672 3.842000007629395 C 27.5687084197998 6.642169952392578 29.11307716369629 10.35115051269531 29.11307716369629 14.28571033477783 C 29.11307716369629 18.22027969360352 27.56869697570801 21.92926979064941 24.76444816589355 24.72944068908691 C 21.96039772033691 27.52942085266113 18.24637794494629 29.07143974304199 14.30653762817383 29.07143974304199 Z M 5.854320049285889 22.72162246704102 C 8.131014823913574 24.94757270812988 11.12812423706055 26.17333984375 14.29403781890869 26.17333984375 C 17.45819473266602 26.17333984375 20.42778587341309 24.9484691619873 22.6557445526123 22.72459030151367 C 27.23905563354492 18.04983139038086 27.24021911621094 10.5245418548584 22.65721702575684 5.948220252990723 C 20.4290771484375 3.723320007324219 17.46341705322266 2.498010158538818 14.30653762817383 2.498010158538818 C 11.18056964874268 2.498010158538818 8.178999900817871 3.723974943161011 5.85398006439209 5.950127601623535 C 1.274574398994446 10.6245641708374 1.274106740951538 18.1462574005127 5.854320049285889 22.72162246704102 Z" stroke="none" fill="#f77a1e"/>
        </g>
      </g>
      <g id="Group_156" data-name="Group 156" transform="translate(16.173 50.649)">
        <g id="Path_16800" data-name="Path 16800" transform="translate(0)" fill="#f77a1e">
          <path d="M 4.001829147338867 8.341903686523438 C 2.759695529937744 8.341903686523438 1.728509902954102 7.866121768951416 1.018062591552734 6.965642929077148 C 0.2001436054706573 6.241475582122803 -0.250000923871994 5.187882900238037 -0.250000923871994 3.996003389358521 C -0.250000923871994 2.901026010513306 0.2002937346696854 1.84718644618988 1.018064975738525 1.027719736099243 C 1.743502140045166 0.2037252485752106 2.80280065536499 -0.2499967217445374 4.001829147338867 -0.2499967217445374 C 5.100779056549072 -0.2499967217445374 6.158359050750732 0.201703280210495 6.979749202728271 1.021883249282837 C 7.801239013671875 1.842183232307434 8.253659248352051 2.916153192520142 8.25364875793457 4.045963287353516 C 8.25364875793457 5.1730637550354 7.803366184234619 6.244633674621582 6.98558521270752 7.064174652099609 C 6.260148048400879 7.888179302215576 5.200847625732422 8.341903686523438 4.001829147338867 8.341903686523438 Z M 4.051848888397217 2.1481032371521 C 3.570168972015381 2.1481032371521 3.117719173431396 2.335013389587402 2.777829170227051 2.674413204193115 C 2.423269033432007 3.028453350067139 2.250909090042114 3.460753202438354 2.250909090042114 3.996003389358521 C 2.250909090042114 4.531253337860107 2.423269033432007 4.963553428649902 2.777829170227051 5.317613124847412 C 3.117719173431396 5.656993389129639 3.570168972015381 5.843903064727783 4.051848888397217 5.843903064727783 C 4.533519268035889 5.843903064727783 4.985969066619873 5.656993389129639 5.325859069824219 5.31760311126709 C 6.034192562103271 4.610307693481445 6.031486988067627 3.473001956939697 5.320719242095947 2.669301748275757 C 4.981411457061768 2.333119869232178 4.531108379364014 2.1481032371521 4.051848888397217 2.1481032371521 Z" stroke="none"/>
          <path d="M 4.001829147338867 8.091903686523438 C 5.102329254150391 8.091903686523438 6.102778911590576 7.69230318069458 6.803099155426025 6.893103122711182 C 8.403839111328125 5.294703483581543 8.403839111328125 2.797203302383423 6.803099155426025 1.198793292045593 C 6.002738952636719 0.3996032774448395 5.002279281616211 3.273773245382472e-06 4.001829147338867 3.273773245382472e-06 C 2.901319026947021 3.273773245382472e-06 1.900859117507935 0.3996032774448395 1.200539112091064 1.198793292045593 C 0.4001790881156921 1.998003244400024 -9.211730684910435e-07 2.997003316879272 -9.211730684910435e-07 3.996003389358521 C -9.211730684910435e-07 5.094903469085693 0.4001790881156921 6.093903064727783 1.200539112091064 6.793203353881836 C 1.900859117507935 7.69230318069458 2.901319026947021 8.091903686523438 4.001829147338867 8.091903686523438 M 4.051844120025635 1.8981032371521 C 4.577084064483643 1.8981032371521 5.10232400894165 2.097903251647949 5.502509117126465 2.497503280639648 C 6.302878856658936 3.396603345870972 6.302878856658936 4.695303440093994 5.502509117126465 5.494513511657715 C 4.702138900756836 6.293703079223633 3.401548862457275 6.293703079223633 2.601179122924805 5.494513511657715 C 2.200999021530151 5.094903469085693 2.000909090042114 4.59540319442749 2.000909090042114 3.996003389358521 C 2.000909090042114 3.396603345870972 2.200999021530151 2.897103309631348 2.601179122924805 2.497503280639648 C 3.00136399269104 2.097903251647949 3.526604175567627 1.8981032371521 4.051844120025635 1.8981032371521 M 4.001829147338867 8.591903686523438 C 2.688286066055298 8.591903686523438 1.594593524932861 8.089378356933594 0.8356271982192993 7.137938022613525 C -0.02610860578715801 6.366199493408203 -0.5000008940696716 5.252485752105713 -0.5000008940696716 3.996003389358521 C -0.5000008940696716 2.836832523345947 -0.02578970603644848 1.722569465637207 0.8355546593666077 0.8566903471946716 C 1.608977079391479 -0.01832478679716587 2.732709884643555 -0.4999967217445374 4.001829147338867 -0.4999967217445374 C 5.167489051818848 -0.4999967217445374 6.287798881530762 -0.02233672700822353 7.156389236450195 0.8449832797050476 C 8.025189399719238 1.712513327598572 8.503659248352051 2.849313259124756 8.50364875793457 4.045963287353516 C 8.50364875793457 5.237198352813721 8.02945613861084 6.369168281555176 7.168092250823975 7.23518705368042 C 6.394679546356201 8.110221862792969 5.270938396453857 8.591903686523438 4.001829147338867 8.591903686523438 Z M 4.051848888397217 2.3981032371521 C 3.636888980865479 2.3981032371521 3.247159004211426 2.559053182601929 2.954468965530396 2.851313352584839 C 2.649269104003906 3.156073331832886 2.500909090042114 3.530503273010254 2.500909090042114 3.996003389358521 C 2.500909090042114 4.461503505706787 2.649269104003906 4.835933208465576 2.954478979110718 5.140703201293945 C 3.247159004211426 5.432953357696533 3.636878967285156 5.593903064727783 4.051848888397217 5.593903064727783 C 4.466819286346436 5.593903064727783 4.856539249420166 5.432953357696533 5.149209022521973 5.140703201293945 C 5.76069450378418 4.530112743377686 5.75535774230957 3.543977022171021 5.138967514038086 2.841178894042969 C 4.847466468811035 2.555322170257568 4.461997032165527 2.3981032371521 4.051848888397217 2.3981032371521 Z" stroke="none" fill="#f77a1e"/>
        </g>
      </g>
      <g id="Group_157" data-name="Group 157" transform="translate(55.691 9.191)">
        <g id="Path_16801" data-name="Path 16801" transform="translate(0)" fill="#f77a1e">
          <path d="M 5.002286911010742 10.33991718292236 C 3.566898345947266 10.33991718292236 2.224967479705811 9.765504837036133 1.319356679916382 8.763637542724609 C 0.3072653412818909 7.750683784484863 -0.2499930858612061 6.430319786071777 -0.2499930858612061 5.044947147369385 C -0.2499930858612061 3.659584283828735 0.3073596060276031 2.339135885238647 1.319450974464417 1.326182246208191 C 2.225059747695923 0.3244186639785767 3.566996097564697 -0.2500028312206268 5.002286911010742 -0.2500028312206268 C 6.319966793060303 -0.2500028312206268 7.695016860961914 0.3375171720981598 8.680537223815918 1.321597218513489 C 9.69556713104248 2.335157155990601 10.25456714630127 3.657467126846313 10.25456714630127 5.044957160949707 C 10.25456714630127 6.4303297996521 9.697214126586914 7.750778198242188 8.685122489929199 8.763731956481934 C 7.779513835906982 9.765495300292969 6.437577724456787 10.33991718292236 5.002286911010742 10.33991718292236 Z M 5.002286911010742 2.347907066345215 C 4.185546875 2.347907066345215 3.54228687286377 2.610377073287964 2.977926969528198 3.173917055130005 C 2.444586992263794 3.706477165222168 2.150866985321045 4.406437397003174 2.150866985321045 5.144866943359375 C 2.150866985321045 5.883286952972412 2.444586992263794 6.583247184753418 2.977926969528198 7.115807056427002 C 3.511366844177246 7.648467063903809 4.230297088623047 7.941817283630371 5.002286911010742 7.941817283630371 C 5.819026947021484 7.941817283630371 6.462286949157715 7.679347038269043 7.026647090911865 7.115807056427002 C 7.568656921386719 6.574587345123291 7.869856834411621 5.820066928863525 7.853036880493164 5.045727252960205 C 7.83708667755127 4.312067031860352 7.546396732330322 3.649977207183838 7.034496784210205 3.181417226791382 L 7.030497074127197 3.177747249603271 L 7.026647090911865 3.173917055130005 C 6.493206977844238 2.641257047653198 5.774276733398438 2.347907066345215 5.002286911010742 2.347907066345215 Z" stroke="none"/>
          <path d="M 5.002286911010742 10.08991718292236 C 6.302876949310303 10.08991718292236 7.603477001190186 9.590407371520996 8.503887176513672 8.59140682220459 C 10.50479698181152 6.593407154083252 10.50479698181152 3.496507167816162 8.503887176513672 1.498507142066956 C 7.603477001190186 0.5994071364402771 6.302876949310303 -2.839050239344942e-06 5.002286911010742 -2.839050239344942e-06 C 3.701696872711182 -2.839050239344942e-06 2.401096820831299 0.4995071589946747 1.500686883926392 1.498507142066956 C -0.5002231001853943 3.496507167816162 -0.5002231001853943 6.593407154083252 1.500686883926392 8.59141731262207 C 2.401096820831299 9.59041690826416 3.701696872711182 10.08991718292236 5.002286911010742 10.08991718292236 M 5.002286911010742 2.097907066345215 C 5.802657127380371 2.097907066345215 6.60301685333252 2.397607088088989 7.203297138214111 2.997007131576538 C 8.403837203979492 4.095907211303711 8.403837203979492 6.093907356262207 7.203297138214111 7.292716979980469 C 6.60301685333252 7.892117023468018 5.902697086334229 8.191817283630371 5.002286911010742 8.191817283630371 C 4.201926708221436 8.191817283630371 3.401556968688965 7.892117023468018 2.801276922225952 7.292716979980469 C 1.600726962089539 6.093917369842529 1.600726962089539 4.195806980133057 2.801276922225952 2.997007131576538 C 3.401556968688965 2.397607088088989 4.101876735687256 2.097907066345215 5.002286911010742 2.097907066345215 M 5.002286911010742 10.58991718292236 C 3.498622179031372 10.58991718292236 2.091110706329346 9.987336158752441 1.138253927230835 8.936087608337402 C 0.08170276135206223 7.876476764678955 -0.4999930858612061 6.495115280151367 -0.4999930858612061 5.044947147369385 C -0.4999930858612061 3.594789028167725 0.08170484751462936 2.213435173034668 1.138256072998047 1.153834819793701 C 2.091122627258301 0.1025860831141472 3.498632192611694 -0.5000028610229492 5.002286911010742 -0.5000028610229492 C 6.384737014770508 -0.5000028610229492 7.825827121734619 0.1148371621966362 8.857187271118164 1.144697189331055 C 9.919516563415527 2.205487251281738 10.50456714630127 3.590627193450928 10.50456714630127 5.044957160949707 C 10.50456714630127 6.495115280151367 9.922868728637695 7.876479148864746 8.866317749023438 8.936079978942871 C 7.913451194763184 9.98732852935791 6.505941867828369 10.58991718292236 5.002286911010742 10.58991718292236 Z M 5.002286911010742 2.597907066345215 C 4.245896816253662 2.597907066345215 3.676036834716797 2.830117225646973 3.154567003250122 3.350817203521729 C 2.668536901473999 3.83614706993103 2.400866985321045 4.473287105560303 2.400866985321045 5.144866943359375 C 2.400866985321045 5.816437244415283 2.668536901473999 6.453577041625977 3.154577016830444 6.938907146453857 C 3.640806913375854 7.424427032470703 4.297007083892822 7.691817283630371 5.002286911010742 7.691817283630371 C 5.758677005767822 7.691817283630371 6.328536987304688 7.459607124328613 6.850007057189941 6.938907146453857 C 7.343946933746338 6.445667266845703 7.618446826934814 5.757606983184814 7.603086948394775 5.051156997680664 C 7.58864688873291 4.386387348175049 7.326766967773438 3.787857055664062 6.865696907043457 3.365827083587646 L 6.850007057189941 3.350817203521729 C 6.363767147064209 2.865297079086304 5.707566738128662 2.597907066345215 5.002286911010742 2.597907066345215 Z" stroke="none" fill="#f77a1e"/>
        </g>
      </g>
      <g id="Group_158" data-name="Group 158" transform="translate(24.977 37.363)">
        <g id="Path_16802" data-name="Path 16802" transform="translate(0)" fill="#f77a1e">
          <path d="M 1.000456213951111 12.83742046356201 C 0.7312839031219482 12.83742046356201 0.3576804101467133 12.70812797546387 0.1061993390321732 12.34715461730957 C -0.1237016916275024 12.10917568206787 -0.2500037550926208 11.80520629882812 -0.2500037550926208 11.48853015899658 C -0.2500037550926208 11.16399002075195 -0.1173637434840202 10.85280990600586 0.1234762519598007 10.6123104095459 L 10.62828636169434 0.1227901056408882 C 10.86903667449951 -0.1176098883152008 11.18048667907715 -0.2499998956918716 11.50525665283203 -0.2499998956918716 C 11.83002662658691 -0.2499998956918716 12.14147663116455 -0.1176098883152008 12.38222599029541 0.1228001117706299 C 12.62307643890381 0.3632901012897491 12.75571632385254 0.6744701266288757 12.75571632385254 0.9990001320838928 C 12.75571632385254 1.323530077934265 12.62307643890381 1.634710073471069 12.38222599029541 1.875210165977478 L 1.87825620174408 12.46378993988037 C 1.619226217269897 12.72245025634766 1.348766207695007 12.83742046356201 1.000456213951111 12.83742046356201 Z" stroke="none"/>
          <path d="M 1.000456213951111 12.58742046356201 C 1.300586223602295 12.58742046356201 1.500686287879944 12.48752021789551 1.700776219367981 12.2877197265625 L 12.20557594299316 1.698300123214722 C 12.60576629638672 1.298700094223022 12.60576629638672 0.6993001103401184 12.20557594299316 0.2997001111507416 C 11.80539703369141 -0.09990064799785614 11.20511531829834 -0.09989912807941437 10.80493640899658 0.2997001111507416 L 0.3001262545585632 10.78921031951904 C -0.1000437438488007 11.18881988525391 -0.1000437438488007 11.78822040557861 0.3001262545585632 12.18782043457031 C 0.5002262592315674 12.48752021789551 0.8003562688827515 12.58742046356201 1.000456213951111 12.58742046356201 M 1.000456213951111 13.08742046356201 C 0.6719361543655396 13.08742046356201 0.2190172672271729 12.93379402160645 -0.08730385452508926 12.50650501251221 C -0.3538141846656799 12.22379398345947 -0.5000037550926208 11.86415863037109 -0.5000037550926208 11.48853015899658 C -0.5000037550926208 11.09714984893799 -0.3413237333297729 10.7231502532959 -0.05318374559283257 10.43541049957275 L 10.45163631439209 -0.05410989001393318 C 10.73959636688232 -0.3416498899459839 11.11377620697021 -0.4999998807907104 11.50525665283203 -0.4999998807907104 C 11.89673614501953 -0.4999998807907104 12.27091598510742 -0.3416498899459839 12.55887603759766 -0.05410989001393318 C 12.84702587127686 0.2336201071739197 13.00571632385254 0.6076201200485229 13.00571632385254 0.9990001320838928 C 13.00571632385254 1.390380144119263 12.84702587127686 1.764380097389221 12.55886650085449 2.052110195159912 L 2.05574631690979 12.63984966278076 C 1.749426245689392 12.94573974609375 1.414636254310608 13.08742046356201 1.000456213951111 13.08742046356201 Z" stroke="none" fill="#f77a1e"/>
        </g>
      </g>
      <g id="Group_159" data-name="Group 159" transform="translate(32.781 18.082)">
        <g id="Path_16803" data-name="Path 16803" transform="translate(0)" fill="#f77a1e">
          <path d="M 9.604385375976562 24.32592010498047 C 7.279635906219482 24.32592010498047 5.12061595916748 23.4484806060791 3.525035858154297 21.8552303314209 L 2.224445819854736 20.55653953552246 L 2.221595764160156 20.55368995666504 L 2.218835830688477 20.55075073242188 C 0.6037157773971558 18.8304500579834 -0.2499942481517792 16.73312950134277 -0.2499942481517792 14.485520362854 C -0.2499942481517792 12.09664058685303 0.5825257301330566 10.05405044555664 2.224445819854736 8.414520263671875 L 10.52823543548584 0.1227904036641121 C 10.76898574829102 -0.1176095902919769 11.08043575286865 -0.2499995976686478 11.40520572662354 -0.2499995976686478 C 11.72997570037842 -0.2499995976686478 12.04142570495605 -0.1176095902919769 12.28217601776123 0.1228004097938538 C 12.52302551269531 0.363290399312973 12.65566539764404 0.6744704246520996 12.65566539764404 0.9990004301071167 C 12.65566539764404 1.323530435562134 12.52302551269531 1.634710431098938 12.28217601776123 1.875210404396057 L 3.97838568687439 10.16692066192627 C 2.799885749816895 11.34369087219238 2.150865793228149 12.87740039825439 2.150865793228149 14.485520362854 C 2.150865793228149 16.09362983703613 2.799885749816895 17.62734031677246 3.97838568687439 18.80410957336426 L 5.278975963592529 20.10280990600586 L 5.280775547027588 20.1046199798584 L 5.282545566558838 20.10646057128906 C 6.396255970001221 21.26486968994141 7.900025844573975 21.90285110473633 9.516845703125 21.90285110473633 C 11.13560581207275 21.90285110473633 12.66728591918945 21.26358032226562 13.82974529266357 20.10280990600586 L 22.13353538513184 11.81110000610352 C 22.37429618835449 11.57070064544678 22.68574523925781 11.43831062316895 23.01050567626953 11.43831062316895 C 23.33527565002441 11.43831062316895 23.64672660827637 11.57070064544678 23.88747596740723 11.811110496521 C 24.12831497192383 12.05160045623779 24.26096534729004 12.36278057098389 24.26096534729004 12.68731021881104 C 24.26096534729004 13.0118408203125 24.12831497192383 13.32301998138428 23.88747596740723 13.56350994110107 L 15.68480587005615 21.85415077209473 L 15.68160533905029 21.85737991333008 L 15.67829608917236 21.8604907989502 C 13.98660564422607 23.45034980773926 11.82951545715332 24.32592010498047 9.604385375976562 24.32592010498047 Z" stroke="none"/>
          <path d="M 9.604385375976562 24.07592010498047 C 11.70534610748291 24.07592010498047 13.80630588531494 23.27672004699707 15.5070858001709 21.67831993103027 L 23.71082496643066 13.38661003112793 C 24.11100578308105 12.98701000213623 24.11100578308105 12.38761043548584 23.71082496643066 11.98801040649414 C 23.31064796447754 11.58841133117676 22.71037483215332 11.58841133117676 22.3101863861084 11.98801040649414 L 14.00639533996582 20.27972030639648 C 11.50525665283203 22.7772216796875 7.503425121307373 22.7772216796875 5.102325916290283 20.27972030639648 L 3.801735639572144 18.98101997375488 C 2.60118579864502 17.7822208404541 1.900865793228149 16.1838207244873 1.900865793228149 14.485520362854 C 1.900865793228149 12.7872200012207 2.60118579864502 11.18881034851074 3.801735639572144 9.990010261535645 L 12.10552597045898 1.698300361633301 C 12.50571537017822 1.298700451850891 12.50571537017822 0.6993004083633423 12.10552597045898 0.2997004091739655 C 11.70534515380859 -0.09989959001541138 11.10506629943848 -0.09989959001541138 10.70488548278809 0.2997004091739655 L 2.401095867156982 8.59142017364502 C 0.800375759601593 10.18982028961182 5.75256353840814e-06 12.18782043457031 5.75256353840814e-06 14.485520362854 C 5.75256353840814e-06 16.78322982788086 0.9004157781600952 18.78123092651367 2.401095867156982 20.37963104248047 L 3.701685667037964 21.67831993103027 C 5.30241584777832 23.27672004699707 7.403375625610352 24.07592010498047 9.604385375976562 24.07592010498047 M 9.604385375976562 24.57592010498047 C 7.212925910949707 24.57592010498047 4.991165637969971 23.67251968383789 3.348385810852051 22.03213119506836 L 2.036575794219971 20.72187042236328 C 0.3771357536315918 18.95437049865723 -0.4999942481517792 16.79788017272949 -0.4999942481517792 14.485520362854 C -0.4999942481517792 12.02785015106201 0.3572057485580444 9.925750732421875 2.04779577255249 8.237610816955566 L 10.35158538818359 -0.0541095919907093 C 10.63954544067383 -0.34164959192276 11.01372528076172 -0.4999995827674866 11.40520572662354 -0.4999995827674866 C 11.79668617248535 -0.4999995827674866 12.17086601257324 -0.34164959192276 12.45882606506348 -0.0541095919907093 C 12.74697589874268 0.2336204051971436 12.90566539764404 0.6076204180717468 12.90566539764404 0.9990004301071167 C 12.90566539764404 1.390380382537842 12.74697589874268 1.76438045501709 12.458815574646 2.052110433578491 L 4.155035972595215 10.34382057189941 C 3.0238356590271 11.47336006164551 2.400865793228149 12.94425010681152 2.400865793228149 14.485520362854 C 2.400865793228149 16.02679061889648 3.0238356590271 17.49767112731934 4.155035972595215 18.62721061706543 L 5.462765693664551 19.93319129943848 C 6.528905868530273 21.04212951660156 7.968665599822998 21.65285110473633 9.516845703125 21.65285110473633 C 11.06889533996582 21.65285110473633 12.53784561157227 21.03954124450684 13.65309619903564 19.92591094970703 L 21.95688629150391 11.63420009613037 C 22.2448558807373 11.34666061401367 22.6190357208252 11.18831062316895 23.01050567626953 11.18831062316895 C 23.40198516845703 11.18831062316895 23.77616500854492 11.34666061401367 24.06412506103516 11.63420009613037 C 24.35226631164551 11.92193031311035 24.51096534729004 12.29593086242676 24.51096534729004 12.68731021881104 C 24.51096534729004 13.07869052886963 24.35226631164551 13.45269012451172 24.06412506103516 13.7404203414917 L 15.84950542449951 22.04267120361328 C 14.1112756729126 23.67625999450684 11.893385887146 24.57592010498047 9.604385375976562 24.57592010498047 Z" stroke="none" fill="#f77a1e"/>
        </g>
      </g>
    </g>
  </g>
</svg>
