<svg xmlns="http://www.w3.org/2000/svg" width="90.401" height="67.4" viewBox="0 0 90.401 67.4">
  <g id="icon-ortopediskaszoles" transform="translate(-0.834 -9)">
    <g id="Group_162" data-name="Group 162" transform="translate(1.034 9.2)">
      <g id="Path_16806" data-name="Path 16806" transform="translate(-1.034 -9.2)" fill="#f77a1e">
        <path d="M 62.88193511962891 59.78303909301758 C 58.96395874023438 59.78303909301758 54.73325729370117 58.31496429443359 50.30734634399414 55.41958618164062 C 47.34384918212891 53.52587509155273 43.49427032470703 52.48265075683594 39.46864700317383 52.48265075683594 C 35.51037979125977 52.48265075683594 31.60849189758301 53.49942779541016 28.1848258972168 55.42307281494141 C 24.28547859191895 57.59650802612305 20.28672981262207 58.74526214599609 16.62079620361328 58.74526214599609 C 16.62034797668457 58.74526214599609 16.62007331848145 58.74526214599609 16.61962509155273 58.74526214599609 C 12.58863639831543 58.7449836730957 9.181491851806641 57.35261917114258 7.271825313568115 54.92518615722656 C 6.578225612640381 54.04354095458984 6.110381126403809 53.05886077880859 5.881258964538574 51.99850845336914 C 5.644814491271973 50.90423965454102 5.668970108032227 49.7545166015625 5.95305871963501 48.58129501342773 C 7.203503131866455 42.88281631469727 8.228302955627441 31.13910675048828 1.0370032787323 16.53617286682129 L 1.034014344215393 16.53011894226074 L 1.031880974769592 16.52370643615723 C 0.8963929414749146 16.11852645874023 0.8647881746292114 15.51651382446289 1.180853724479675 15.03923034667969 C 1.407180309295654 14.59760093688965 2.682000160217285 13.18981552124023 5.889725685119629 11.894362449646 C 7.857114315032959 11.09981822967529 10.24314785003662 10.46310710906982 12.98154735565186 10.00192928314209 C 16.34405899047852 9.435640335083008 20.25922584533691 9.132184982299805 24.6182918548584 9.099995613098145 C 25.73838043212891 9.099995613098145 26.00102615356445 9.773884773254395 26.87124824523926 12.00674057006836 C 27.38706970214844 13.33024024963379 28.16658020019531 15.33032894134521 29.49228096008301 18.13199615478516 L 29.49483680725098 18.13738441467285 L 29.49672508239746 18.14305114746094 C 29.87285804748535 19.26790618896484 30.59745788574219 20.11648559570312 31.8462028503418 20.89449691772461 C 49.95425796508789 31.39694023132324 58.09689331054688 36.74861907958984 62.01004791259766 39.32050704956055 C 64.78380584716797 41.14352798461914 65.52930450439453 41.63350677490234 66.25809478759766 41.63350677490234 C 66.84789276123047 41.63350677490234 67.42953491210938 41.62149429321289 67.99201202392578 41.60988616943359 C 68.54232788085938 41.59851837158203 69.11138153076172 41.58676147460938 69.67589569091797 41.58676147460938 C 71.82252502441406 41.58676147460938 74.26156616210938 41.74600601196289 77.54506683349609 42.90125274658203 C 77.72063446044922 42.95957565307617 77.88419342041016 43.01798629760742 78.0423583984375 43.0744743347168 C 78.64002227783203 43.28791809082031 79.11210632324219 43.45652008056641 79.76264953613281 43.45652008056641 L 84.68618011474609 43.45652008056641 C 85.76251220703125 43.45652008056641 86.70278930664062 43.82638549804688 87.40537261962891 44.52614212036133 C 88.079345703125 45.19741821289062 88.47123718261719 46.13116455078125 88.50885009765625 47.15537261962891 C 88.57929229736328 49.07362747192383 87.44184875488281 51.04757308959961 85.38816833496094 52.57106399536133 C 82.84444427490234 54.45809555053711 78.95595550537109 55.64260864257812 74.14308166503906 55.99654006958008 C 72.66316986083984 56.16053009033203 71.68162536621094 56.49958419799805 70.96417999267578 57.09558486938477 L 70.96221160888672 57.09721755981445 L 70.96015930175781 57.09875106811523 C 68.64488220214844 58.82973861694336 65.77597808837891 59.78303909301758 62.88193511962891 59.78303909301758 Z M 39.88751602172852 49.53381729125977 C 44.43524932861328 49.53381729125977 48.82354736328125 50.71767425537109 52.24404907226562 52.86730575561523 C 56.23917007446289 55.49578475952148 59.94719314575195 56.82785034179688 63.26689147949219 56.82762908935547 C 65.67781066894531 56.82746124267578 67.79911804199219 56.11054992675781 69.57186889648438 54.69680786132812 C 70.84880065917969 53.70672988891602 72.4287109375 53.13359451293945 74.26876831054688 52.99249649047852 C 77.79092407226562 52.71160888671875 80.57724761962891 52.08383941650391 82.55002593994141 51.12665176391602 C 84.53834533691406 50.16193008422852 85.64965057373047 48.88447189331055 85.85307312011719 47.32977294921875 C 85.88916015625 47.02395248413086 85.83733367919922 46.79657363891602 85.69450378417969 46.63589477539062 C 85.39627838134766 46.30040740966797 84.69755554199219 46.2541618347168 83.98691558837891 46.2541618347168 C 83.65248107910156 46.2541618347168 83.28018188476562 46.26634216308594 82.88602447509766 46.27922821044922 C 82.41321563720703 46.29469680786133 81.92430114746094 46.31068420410156 81.397705078125 46.31068420410156 C 80.23833465576172 46.31068420410156 78.49771118164062 46.23844146728516 76.77443695068359 45.61376190185547 L 76.57441711425781 45.54705047607422 C 75.18024444580078 45.08077239990234 73.27086639404297 44.44219589233398 69.36795806884766 44.44219589233398 C 68.70108032226562 44.44219589233398 67.98774719238281 44.46089553833008 67.24775695800781 44.49778366088867 C 66.97470092773438 44.50687408447266 66.7318115234375 44.51432800292969 66.50773620605469 44.51432800292969 C 64.93047332763672 44.51432800292969 64.40306854248047 44.17029571533203 60.29825973510742 41.4926643371582 C 55.96029281616211 38.66292953491211 47.88568115234375 33.39571762084961 30.61750411987305 23.30941772460938 C 27.90871429443359 21.70926284790039 27.06008148193359 19.59515190124512 25.77552604675293 16.39505195617676 C 25.25540924072266 15.09935188293457 24.66663360595703 13.63260173797607 23.85385894775391 11.9657096862793 C 18.04096603393555 12.0900821685791 13.21990871429443 12.68983173370361 9.524270057678223 13.74846267700195 C 6.186487197875977 14.70458316802979 4.86716365814209 15.73244953155518 4.483050346374512 16.09353828430176 C 7.630505084991455 22.81712532043457 9.486740112304688 29.58260154724121 10.00086975097656 36.20419692993164 C 10.45417022705078 42.04253005981445 9.762069702148438 46.56412887573242 9.10164737701416 49.32921981811523 C 8.777481079101562 50.72951889038086 9.079614639282227 52.06575012207031 9.975525856018066 53.19276428222656 C 11.32733631134033 54.89325332641602 13.84265899658203 55.8685302734375 16.8765697479248 55.8685302734375 C 20.02690315246582 55.8685302734375 23.56300354003906 54.82977294921875 27.10259246826172 52.86454010009766 C 30.95973587036133 50.68569564819336 35.38091278076172 49.53381729125977 39.88751602172852 49.53381729125977 Z" stroke="none"/>
        <path d="M 62.88193511962891 59.68304061889648 C 65.8360595703125 59.68304061889648 68.64950561523438 58.7014274597168 70.90028381347656 57.01866149902344 C 71.74431610107422 56.31750869750977 72.86968994140625 56.03704071044922 74.13574981689453 55.89680862426758 C 91.29778289794922 54.63472747802734 90.45375061035156 43.5565185546875 84.68618011474609 43.5565185546875 L 79.76264953613281 43.5565185546875 C 78.91861724853516 43.5565185546875 78.35592651367188 43.27605056762695 77.51187896728516 42.99558639526367 C 72.72902679443359 41.31282043457031 69.77490997314453 41.73350524902344 66.25809478759766 41.73350524902344 C 64.42934417724609 41.73350524902344 62.74126815795898 38.92889785766602 31.79332542419434 20.97937393188477 C 30.66794776916504 20.27821731567383 29.82390403747559 19.43684005737305 29.40189170837402 18.17476272583008 C 25.88507080078125 10.74252891540527 26.30709266662598 9.199995994567871 24.61902618408203 9.199995994567871 C 5.628236770629883 9.340229034423828 1.548736572265625 14.52876281738281 1.267392158508301 15.08968448638916 C 0.9860476851463318 15.51038455963135 0.9860476851463318 16.0713062286377 1.12671434879303 16.49199676513672 C 8.723036766052246 31.91737365722656 7.034958839416504 44.11743927001953 6.050247669219971 48.60482788085938 C 4.080836772918701 56.73819351196289 15.053297996521 62.62789535522461 28.13583564758301 55.33589553833008 C 35.87282562255859 50.98875427246094 44.87586212158203 51.83013534545898 50.36209106445312 55.33589553833008 C 54.86361312866211 58.28073883056641 59.08379364013672 59.68304061889648 62.88193511962891 59.68304061889648 M 39.88751602172852 49.63382339477539 C 35.64718246459961 49.63382339477539 31.20491218566895 50.66204833984375 27.15113639831543 52.95197296142578 C 16.03800582885742 59.12212753295898 7.738325119018555 54.77498245239258 9.00438117980957 49.30598449707031 C 10.41110324859619 43.41628646850586 11.53648090362549 31.3564624786377 4.362192153930664 16.0713062286377 C 5.487569808959961 14.949462890625 10.41110324859619 12.14485168457031 23.91565895080566 11.86438465118408 C 26.7291145324707 17.61384010314941 26.86978149414062 20.97938537597656 30.66793632507324 23.22307395935059 C 66.68013000488281 44.25768661499023 63.02267074584961 44.53813171386719 67.24278259277344 44.39790725708008 C 72.86968231201172 44.1174430847168 75.12044525146484 44.95883178710938 76.80851745605469 45.51975250244141 C 79.48802185058594 46.49105834960938 82.21460723876953 46.1541633605957 83.98691558837891 46.1541633605957 C 85.28508758544922 46.1541633605957 86.07117462158203 46.3348503112793 85.95222473144531 47.34275054931641 C 85.53021240234375 50.56806182861328 81.31005096435547 52.53128433227539 74.27641296386719 53.09220886230469 C 72.44766998291016 53.23244094848633 70.9002685546875 53.79336166381836 69.63421630859375 54.77498626708984 C 65.41404724121094 58.1405143737793 59.22445297241211 57.57958984375 52.19083786010742 52.95197296142578 C 48.82780075073242 50.83845901489258 44.47595977783203 49.63382339477539 39.88751602172852 49.63382339477539 M 62.88193511962891 59.88304138183594 C 58.94417953491211 59.88304138183594 54.6950569152832 58.40947341918945 50.25260162353516 55.50326156616211 C 47.30589294433594 53.62029647827148 43.47543716430664 52.5826530456543 39.46864700317383 52.5826530456543 C 35.52749252319336 52.5826530456543 31.64254760742188 53.59500885009766 28.23380279541016 55.51026153564453 C 24.31926918029785 57.6921501159668 20.30378150939941 58.84526443481445 16.62083625793457 58.84526443481445 C 12.55776977539062 58.84498596191406 9.121992111206055 57.43870544433594 7.193225383758545 54.98701858520508 C 6.490159034729004 54.09333038330078 6.015870094299316 53.09496307373047 5.783514499664307 52.01963043212891 C 5.543859004974365 50.91050720214844 5.568203449249268 49.74576187133789 5.855869770050049 48.55776214599609 C 7.103025436401367 42.87416076660156 8.125136375427246 31.15596199035645 0.947292149066925 16.58035087585449 L 0.9370365738868713 16.55541801452637 C 0.7941257357597351 16.12801361083984 0.7615674734115601 15.49182033538818 1.097061395645142 14.98465156555176 C 1.193078398704529 14.81622695922852 2.140950918197632 13.30047607421875 5.852270126342773 11.80162906646729 C 7.826358795166016 11.00438499450684 10.21941471099854 10.36569595336914 12.96494770050049 9.903318405151367 C 16.33268165588379 9.336151123046875 20.25318145751953 9.032229423522949 24.6175479888916 8.999996185302734 C 25.80673599243164 8.999996185302734 26.07513618469238 9.688640594482422 26.96442604064941 11.97042942047119 C 27.479736328125 13.29261779785156 28.25847053527832 15.29072952270508 29.58267021179199 18.08921813964844 L 29.5915699005127 18.1113395690918 C 29.95951080322266 19.21171188354492 30.67030334472656 20.04343032836914 31.8961238861084 20.80778503417969 C 50.00697708129883 31.31199264526367 58.15129852294922 36.66470718383789 62.06496810913086 39.23694229125977 C 64.81902313232422 41.04701995849609 65.55922698974609 41.53350830078125 66.25809478759766 41.53350830078125 C 66.84685516357422 41.53350830078125 67.42797088623047 41.52150726318359 67.98994445800781 41.50989532470703 C 68.540771484375 41.49852752685547 69.11033630371094 41.48676300048828 69.67589569091797 41.48676300048828 C 71.83139038085938 41.48676300048828 74.28060150146484 41.64669418334961 77.57826232910156 42.80691909790039 C 77.75322723388672 42.86502838134766 77.91731262207031 42.92362976074219 78.07598876953125 42.98029708862305 C 78.66455078125 43.19049453735352 79.12942504882812 43.35651779174805 79.76264953613281 43.35651779174805 L 84.68618011474609 43.35651779174805 C 85.78953552246094 43.35651779174805 86.75422668457031 43.7364616394043 87.47593688964844 44.45528411865234 C 88.16792297363281 45.14449691772461 88.57023620605469 46.10209655761719 88.60877990722656 47.15170669555664 C 88.68045043945312 49.10339736938477 87.52828979492188 51.10795211791992 85.44776153564453 52.65137481689453 C 82.889404296875 54.54925537109375 78.98430633544922 55.7403450012207 74.15412902832031 56.09600067138672 C 72.69324493408203 56.25819778442383 71.72895812988281 56.59025955200195 71.02808380126953 57.17250823974609 L 71.02003479003906 57.17884063720703 C 68.68759155273438 58.92267227172852 65.79742431640625 59.88304138183594 62.88193511962891 59.88304138183594 Z M 39.88751602172852 49.43381881713867 C 44.45381546020508 49.43381881713867 48.86101531982422 50.62311935424805 52.29726028442383 52.78263854980469 C 56.27752685546875 55.40131759643555 59.96706008911133 56.72784042358398 63.26689147949219 56.72763061523438 C 65.65457916259766 56.72746276855469 67.75490570068359 56.01789474487305 69.50951385498047 54.61861801147461 C 70.80326843261719 53.61549758911133 72.40121459960938 53.03541946411133 74.26112365722656 52.89279556274414 C 77.77052307128906 52.61291885375977 80.54482269287109 51.98841857910156 82.50637054443359 51.03668594360352 C 84.46250152587891 50.08757400512695 85.55513763427734 48.83602905273438 85.75391387939453 47.31680679321289 C 85.78630065917969 47.04224014282227 85.74252319335938 46.84043121337891 85.61975860595703 46.70232772827148 C 85.34703826904297 46.39553070068359 84.64130401611328 46.35416412353516 83.98691558837891 46.35416412353516 C 83.65411376953125 46.35416412353516 83.28260040283203 46.36631774902344 82.88928985595703 46.37917327880859 C 82.43773651123047 46.39393997192383 81.92593383789062 46.41068649291992 81.397705078125 46.41068649291992 C 80.23142242431641 46.41068649291992 78.48027038574219 46.33787155151367 76.74314880371094 45.70878601074219 L 76.54269409179688 45.64188385009766 C 75.15503692626953 45.17778396606445 73.25457763671875 44.54219436645508 69.36795806884766 44.54219436645508 C 68.70264434814453 44.54219436645508 67.99098968505859 44.56085205078125 67.25273895263672 44.59766387939453 C 66.97733306884766 44.60684204101562 66.73372650146484 44.61433029174805 66.50773620605469 44.61433029174805 C 64.90073394775391 44.61433029174805 64.28030395507812 44.2096061706543 60.24361419677734 41.57640838623047 C 55.9063606262207 38.74713897705078 47.83308029174805 33.48080825805664 30.56705856323242 23.39577293395996 C 27.82858085632324 21.77806282043457 26.92849159240723 19.53576278686523 25.68271446228027 16.43229675292969 C 25.16924285888672 15.15311813354492 24.5887336730957 13.70699787139893 23.7919807434082 12.06707572937012 C 18.01626777648926 12.19428062438965 13.22564125061035 12.79221630096436 9.551814079284668 13.84459590911865 C 6.37272834777832 14.75525665283203 5.043001174926758 15.7252779006958 4.604694366455078 16.11762428283691 C 7.738328456878662 22.83016204833984 9.587212562561035 29.58475112915039 10.10056972503662 36.19646453857422 C 10.55488109588623 42.0477409362793 9.861002922058105 46.58038330078125 9.198914527893066 49.35245132446289 C 8.882025718688965 50.72131729125977 9.177536964416504 52.02822875976562 10.05380344390869 53.13052749633789 C 11.38652515411377 54.8070182800293 13.87332534790039 55.76852798461914 16.8765697479248 55.76852798461914 C 20.00995826721191 55.76852798461914 23.52928161621094 54.7341194152832 27.05405807495117 52.77711868286133 C 30.9255485534668 50.59016418457031 35.36372375488281 49.43381881713867 39.88751602172852 49.43381881713867 Z" stroke="none" fill="#f77a1e"/>
      </g>
      <g id="Path_16807" data-name="Path 16807" transform="translate(0.67 5.311)" fill="#f77a1e">
        <path d="M 42.81378173828125 61.78902435302734 C 42.81178283691406 61.78902435302734 42.810546875 61.78902435302734 42.80854797363281 61.78902435302734 C 30.7157154083252 61.78876876831055 18.79749298095703 60.88798141479492 12.35041618347168 59.99535751342773 C 10.5742826461792 59.71209335327148 9.054460525512695 59.01393508911133 7.83111572265625 57.91997909545898 C 6.601949214935303 56.82080459594727 5.728238105773926 55.3717155456543 5.234226703643799 53.61296844482422 C 5.086471557617188 53.17148208618164 5.088515758514404 52.72348022460938 5.241116046905518 52.41924667358398 C 5.588582515716553 51.65707015991211 6.042093753814697 51.57090377807617 8.5589599609375 51.09270095825195 C 11.51933765411377 50.53023529052734 17.02972602844238 49.48326873779297 28.37407112121582 46.33779144287109 C 31.09596061706543 45.56254577636719 33.86656188964844 45.16936874389648 36.60822677612305 45.16936874389648 C 39.21883773803711 45.16936874389648 41.81357192993164 45.52645874023438 44.32036972045898 46.230712890625 C 46.86537170410156 46.94570159912109 49.33599472045898 48.02334594726562 51.66358184814453 49.4337158203125 C 53.92001724243164 50.80831527709961 56.48442840576172 51.47645950317383 59.50353622436523 51.47644805908203 C 63.92910385131836 51.47643661499023 68.69942474365234 50.02584838867188 73.31268310546875 48.62302398681641 C 77.89500427246094 47.2296142578125 82.22319030761719 45.91347122192383 86.21719360351562 45.91347122192383 C 87.26767730712891 45.91347122192383 87.97478485107422 46.07955169677734 88.65678405761719 46.48667144775391 C 88.99179077148438 46.65598678588867 89.27471923828125 47.12920761108398 89.40682983398438 47.5242919921875 L 89.41199493408203 47.53972625732422 L 89.41199493408203 47.55600357055664 C 89.41199493408203 47.56503677368164 89.41353607177734 47.58211517333984 89.41548156738281 47.60675811767578 C 89.52214813232422 48.95977020263672 89.06436920166016 50.40703582763672 88.12648010253906 51.68194580078125 C 85.52477264404297 55.32064819335938 79.56478118896484 58.02635955810547 70.412841796875 59.72280120849609 C 63.01652526855469 61.09381866455078 53.73038482666016 61.78902435302734 42.81378173828125 61.78902435302734 Z M 8.714311599731445 54.07681655883789 C 9.608854293823242 55.78549957275391 10.98230075836182 56.76615142822266 12.79851627349854 56.99245834350586 C 18.52577209472656 57.78383636474609 30.3129711151123 58.63539123535156 42.66193771362305 58.63539123535156 C 53.88455963134766 58.63539123535156 63.62575912475586 57.92644882202148 70.83242797851562 56.58520126342773 C 79.79219055175781 54.91769409179688 85.05933380126953 52.29143524169922 86.49252319335938 48.77785873413086 L 86.35785675048828 48.77785873413086 C 82.75057220458984 48.77785873413086 78.64629364013672 50.0262565612793 74.301025390625 51.34795761108398 C 69.46383666992188 52.81928253173828 64.46197509765625 54.34070205688477 59.56660461425781 54.34070205688477 C 55.99134826660156 54.34070205688477 52.91215896606445 53.52545928955078 50.15309524536133 51.84839248657227 C 46.00790405273438 49.29874801635742 41.46011734008789 48.006103515625 36.63563919067383 48.006103515625 C 34.14860534667969 48.006103515625 31.62368202209473 48.35887908935547 29.13103866577148 49.05463790893555 C 20.45583724975586 51.54419326782227 12.91282653808594 53.17113494873047 9.287849426269531 53.9529914855957 C 9.083704948425293 53.99702453613281 8.892342567443848 54.03830337524414 8.714311599731445 54.07681655883789 Z" stroke="none"/>
        <path d="M 36.60821914672852 45.26937103271484 C 33.87328338623047 45.26937103271484 31.12074661254883 45.65946578979492 28.40077972412109 46.43415832519531 C 7.159248352050781 52.32384872436523 6.033859252929688 50.92154693603516 5.33050537109375 52.46408081054688 C 5.189834594726562 52.74453735351562 5.189834594726562 53.16523742675781 5.33050537109375 53.5859260559082 C 6.315208435058594 57.09169006347656 8.847312927246094 59.33539199829102 12.36412811279297 59.89630126953125 C 18.43320465087891 60.7365837097168 30.23187255859375 61.68901824951172 42.80854415893555 61.68901824951172 C 61.71487045288086 61.68901824951172 82.38594818115234 59.53862380981445 88.04592895507812 51.6226921081543 C 89.59333038330078 49.51923751831055 89.31198120117188 47.69623565673828 89.31198120117188 47.55600357055664 C 89.17131805419922 47.13531494140625 88.88996887207031 46.71461486816406 88.60862731933594 46.57439041137695 C 87.90525817871094 46.15370178222656 87.20189666748047 46.01346969604492 86.21719360351562 46.01346969604492 C 75.52606964111328 46.01346969604492 61.74017715454102 55.68938446044922 51.61175918579102 49.51923751831055 C 46.91456604003906 46.67304992675781 41.79429626464844 45.26937103271484 36.60821914672852 45.26937103271484 M 59.56660842895508 54.24070358276367 C 68.86582946777344 54.24070358276367 78.73501586914062 48.67786026000977 86.35786437988281 48.67786026000977 C 86.49853515625 48.67786026000977 86.49853515625 48.67786026000977 86.63921356201172 48.67786026000977 C 81.71567535400391 61.71930694580078 26.99407196044922 59.05492782592773 12.78614807128906 57.09169006347656 C 10.53538513183594 56.81123733520508 9.269325256347656 55.4089241027832 8.565971374511719 54.00661468505859 C 11.80143737792969 53.30546951293945 19.81977081298828 51.6226921081543 29.10414886474609 48.95831298828125 C 36.13779067993164 46.99508285522461 43.59343338012695 47.69623947143555 50.20503616333008 51.76293563842773 C 53.17753601074219 53.56973648071289 56.33840942382812 54.24070358276367 59.56660842895508 54.24070358276367 M 36.60821533203125 45.06937026977539 C 39.22797012329102 45.06937026977539 41.83181762695312 45.42771530151367 44.34741592407227 46.13443756103516 C 46.90112686157227 46.85186767578125 49.38006973266602 47.93313598632812 51.71540451049805 49.34819030761719 C 53.95589447021484 50.71308135986328 56.50328063964844 51.37644577026367 59.50353622436523 51.37644577026367 C 63.91423797607422 51.37644577026367 68.67735290527344 49.92805862426758 73.28363037109375 48.52734756469727 C 77.87324523925781 47.1317138671875 82.20833587646484 45.81346893310547 86.21719360351562 45.81346893310547 C 87.2857666015625 45.81346893310547 88.00724792480469 45.98318862915039 88.70512390136719 46.39907073974609 C 89.06410217285156 46.5826301574707 89.36347198486328 47.07931900024414 89.50166320800781 47.49258041381836 L 89.51198577880859 47.5234489440918 L 89.51198577880859 47.55600357055664 C 89.51222991943359 47.56352615356445 89.5135498046875 47.57843780517578 89.51515960693359 47.59890365600586 C 89.62371826171875 48.97584915161133 89.15914916992188 50.44694900512695 88.20702362060547 51.74120330810547 C 85.59059143066406 55.40053558349609 79.60935974121094 58.11970138549805 70.43107604980469 59.82098007202148 C 63.02786254882812 61.1932373046875 53.73430633544922 61.8890266418457 42.80854797363281 61.8890266418457 C 30.71286010742188 61.8890266418457 18.78855133056641 60.98768997192383 12.33669281005859 60.09441375732422 C 10.53928375244141 59.80778121948242 9.002326965332031 59.10148239135742 7.764457702636719 57.99452590942383 C 6.522010803222656 56.88346481323242 5.638771057128906 55.41994476318359 5.139297485351562 53.6447639465332 C 4.983963012695312 53.17705535888672 4.987968444824219 52.70418548583984 5.150009155273438 52.37785339355469 C 5.520294189453125 51.56826400756836 5.983772277832031 51.48019409179688 8.540283203125 50.99445724487305 C 11.49923706054688 50.43225860595703 17.00699615478516 49.38579177856445 28.34735107421875 46.24142456054688 C 31.07749176025391 45.46383666992188 33.85730361938477 45.06937026977539 36.60821533203125 45.06937026977539 Z M 59.56660461425781 54.44070434570312 C 55.97250366210938 54.44070434570312 52.87633895874023 53.62070465087891 50.10116195678711 51.933837890625 C 45.97113800048828 49.39353561401367 41.44098281860352 48.10588073730469 36.63565063476562 48.10610198974609 C 34.15728378295898 48.10622406005859 31.64140319824219 48.45775985717773 29.15791320800781 49.15094757080078 C 20.48020172119141 51.6412353515625 12.93497467041016 53.26865768432617 9.308929443359375 54.05074691772461 C 9.153488159179688 54.08427429199219 9.005455017089844 54.11620330810547 8.865074157714844 54.14653015136719 C 9.744491577148438 55.7528076171875 11.07077789306641 56.67640686035156 12.81088256835938 56.89322662353516 C 18.53614044189453 57.684326171875 30.31763458251953 58.53539276123047 42.66193771362305 58.53539276123047 C 53.8785285949707 58.53539276123047 63.61339569091797 57.8270378112793 70.81414031982422 56.48689270019531 C 79.62068176269531 54.84789657592773 84.84145355224609 52.2890510559082 86.34154510498047 48.87786865234375 C 82.75306701660156 48.88166427612305 78.66143798828125 50.12617111206055 74.33011627197266 51.44362640380859 C 69.48593902587891 52.91707992553711 64.47683715820312 54.44070434570312 59.56660461425781 54.44070434570312 Z" stroke="none" fill="#f77a1e"/>
      </g>
    </g>
  </g>
</svg>
