<svg xmlns="http://www.w3.org/2000/svg" width="76.601" height="86.6" viewBox="0 0 76.601 86.6">
  <g id="icon-gaitasanalize" transform="translate(-22.095 -14.675)">
    <g id="Group_161" data-name="Group 161" transform="translate(22.395 14.975)">
      <g id="Path_16804" data-name="Path 16804" transform="translate(-22.395 -14.975)" fill="#f77a1e">
        <path d="M 94.42319488525391 101.1247253417969 L 65.38214111328125 101.1247253417969 C 64.10848999023438 101.1247253417969 62.83284378051758 100.8186798095703 61.69310760498047 100.2396774291992 C 60.53750991821289 99.65261077880859 59.54729843139648 98.79666900634766 58.82950973510742 97.76436614990234 L 52.40100860595703 88.73764801025391 C 48.90029907226562 83.77751922607422 44.0743293762207 79.75594329833984 38.44447708129883 77.10717010498047 C 33.52196502685547 74.84819030761719 29.06097602844238 71.89842224121094 25.18670845031738 68.34042358398438 C 23.36713027954102 66.75234222412109 22.32267570495605 64.49995422363281 22.24856376647949 62.00071334838867 C 22.17574310302734 59.54474639892578 23.09037590026855 57.3012580871582 24.89356422424316 55.51276779174805 L 28.21444320678711 52.07577896118164 C 33.02827453613281 47.37241363525391 36.78789901733398 41.56913375854492 39.08993148803711 35.29025650024414 L 46.31430816650391 15.8720121383667 C 46.56357574462891 15.25381183624268 47.19746398925781 14.82472324371338 47.8572883605957 14.82472324371338 C 48.04193115234375 14.82472324371338 48.22065353393555 14.85847854614258 48.38847732543945 14.92505645751953 C 48.79594421386719 15.08671188354492 49.13173294067383 15.41763401031494 49.30971908569336 15.83297824859619 C 49.47366333007812 16.21552276611328 49.484130859375 16.6241340637207 49.33918762207031 16.98353385925293 L 42.11653137207031 36.39730072021484 C 39.68524169921875 42.99327850341797 35.67619705200195 49.18156814575195 30.52294158935547 54.29274368286133 L 27.05535316467285 57.73203277587891 C 25.98241806030273 58.79620742797852 25.36674690246582 60.32295608520508 25.36592102050781 61.92135238647461 C 25.4389705657959 63.56886291503906 26.11340522766113 65.03118133544922 27.26523208618164 66.03919219970703 C 31.02412033081055 69.40888977050781 35.21684265136719 72.19725799560547 39.72826385498047 74.32802581787109 C 45.85063171386719 77.21961975097656 51.11666488647461 81.59712219238281 54.95707702636719 86.98728179931641 L 61.38657379150391 96.01541137695312 C 62.3049430847168 97.27660369873047 63.77195358276367 98.03031158447266 65.30990600585938 98.03031158447266 L 94.35094451904297 98.03031158447266 C 94.66529846191406 98.03031158447266 94.90972900390625 97.90915679931641 95.09819793701172 97.65991973876953 L 95.10462951660156 97.65141296386719 L 95.11220550537109 97.64389801025391 C 95.17173767089844 97.58485412597656 95.35988616943359 97.35843658447266 95.28723907470703 96.9189453125 L 94.85449981689453 94.91602325439453 C 94.3687744140625 92.57604217529297 92.24305725097656 90.87854766845703 89.79974365234375 90.87854766845703 L 83.08128356933594 90.87854766845703 C 81.71944427490234 90.87854766845703 80.45761871337891 90.21089935302734 79.70591735839844 89.09259033203125 L 66.84864044189453 70.75221252441406 C 65.21591949462891 68.41310119628906 63.96052169799805 65.88639068603516 63.11714172363281 63.24200057983398 C 62.26756286621094 60.57817840576172 61.83679962158203 57.79655456542969 61.83679962158203 54.97441101074219 C 61.83679962158203 52.10630035400391 62.27667617797852 49.27045822143555 63.14421081542969 46.5456657409668 L 73.83622741699219 15.94947624206543 C 74.02246856689453 15.33905982971191 74.64160919189453 14.89636707305908 75.30974578857422 14.89636707305908 C 75.49169158935547 14.89636707305908 75.66809844970703 14.92931747436523 75.83414459228516 14.99430656433105 C 76.22173309326172 15.11171913146973 76.55057525634766 15.40049457550049 76.73712921142578 15.78755664825439 C 76.92202758789062 16.17118835449219 76.94209289550781 16.60555076599121 76.79237365722656 16.97990608215332 L 66.17494201660156 47.56922149658203 C 65.41287231445312 50.06441879272461 65.02646636962891 52.55587387084961 65.02646636962891 54.97441101074219 C 65.02646636962891 59.91709899902344 66.56598663330078 64.74372100830078 69.47859954833984 68.93248748779297 L 82.40924072265625 87.27449035644531 L 82.41561126708984 87.28353118896484 L 82.42058563232422 87.29341125488281 C 82.5269775390625 87.50445556640625 82.81466674804688 87.64083099365234 83.15353393554688 87.64083099365234 L 89.87198638916016 87.64083099365234 C 93.80062866210938 87.64083099365234 97.23473358154297 90.37266540527344 98.03749847412109 94.13652038574219 L 98.47085571289062 96.14238739013672 L 98.47142791748047 96.14508056640625 L 98.47190856933594 96.14778900146484 C 98.69445037841797 97.39850616455078 98.41007232666016 98.57840728759766 97.64961242675781 99.56002807617188 C 96.93226623535156 100.5544357299805 95.75644683837891 101.1247253417969 94.42319488525391 101.1247253417969 Z" stroke="none"/>
        <path d="M 94.42319488525391 100.974723815918 C 95.65128326416016 100.974723815918 96.80716705322266 100.4731597900391 97.52957916259766 99.47003173828125 C 98.25198364257812 98.53858184814453 98.54095458984375 97.39213562011719 98.32423400878906 96.17406463623047 L 97.89080047607422 94.16780853271484 C 97.09613037109375 90.44194793701172 93.70077514648438 87.79083251953125 89.87198638916016 87.79083251953125 L 83.15353393554688 87.79083251953125 C 82.79232788085938 87.79083251953125 82.43110656738281 87.64753723144531 82.28664398193359 87.36092376708984 L 69.35544586181641 69.01811981201172 C 66.46576690673828 64.86233520507812 64.87646484375 59.99002456665039 64.87646484375 54.97441101074219 C 64.87646484375 52.39495468139648 65.30990600585938 49.88714599609375 66.03231811523438 47.52265548706055 L 76.65180969238281 16.92742347717285 C 76.94078826904297 16.21091270446777 76.50733184814453 15.35108947753906 75.784912109375 15.13613414764404 C 75.06250762939453 14.84952735900879 74.19561767578125 15.27944850921631 73.97887420654297 15.99595642089844 L 63.28714370727539 46.59117889404297 C 62.42025375366211 49.31393432617188 61.98679733276367 52.10834503173828 61.98679733276367 54.97441101074219 C 61.98679733276367 60.63488006591797 63.72058868408203 66.00875854492188 66.97146606445312 70.66611480712891 L 79.83040618896484 89.0089111328125 C 80.55284118652344 90.08367919921875 81.78092956542969 90.72854614257812 83.08128356933594 90.72854614257812 L 89.79974365234375 90.72854614257812 C 92.25594329833984 90.72854614257812 94.49542999267578 92.44818115234375 95.00112152099609 94.88434600830078 L 95.43457794189453 96.89057922363281 C 95.50680541992188 97.32050323486328 95.36232757568359 97.60708618164062 95.21784210205078 97.75040435791016 C 95.00112152099609 98.0369873046875 94.71215057373047 98.18031311035156 94.35094451904297 98.18031311035156 L 65.30990600585938 98.18031311035156 C 63.72059631347656 98.18031311035156 62.20352172851562 97.39213562011719 61.26439666748047 96.10242462158203 L 54.83490753173828 87.07432556152344 C 51.00610733032227 81.70045471191406 45.73248672485352 77.3297119140625 39.66420745849609 74.46365356445312 C 35.11299896240234 72.31410217285156 30.92299842834473 69.51969146728516 27.16644287109375 66.15206909179688 C 25.9383430480957 65.07730102539062 25.28816413879395 63.57261276245117 25.21591949462891 61.92462158203125 C 25.21591949462891 60.34830093383789 25.79385375976562 58.77195739746094 26.94972038269043 57.62553405761719 L 30.41730880737305 54.18624496459961 C 35.47419738769531 49.17064666748047 39.51972961425781 43.00860214233398 41.9759407043457 36.34500122070312 L 49.20007705688477 16.92743492126465 C 49.48904418945312 16.21092224121094 49.05559921264648 15.35110092163086 48.33316421508789 15.06448936462402 C 47.61076354980469 14.77789115905762 46.74387359619141 15.20780277252197 46.45489883422852 15.92431163787842 L 39.23076629638672 35.34188842773438 C 36.91903305053711 41.64723587036133 33.1624755859375 47.45100021362305 28.32230949401855 52.18001174926758 L 24.99919700622559 55.61926651000977 C 23.26540946960449 57.33891296386719 22.32626533508301 59.56011199951172 22.39849853515625 61.99626922607422 C 22.47074317932129 64.43242645263672 23.48213195800781 66.65361022949219 25.28816413879395 68.22994232177734 C 29.1891975402832 71.81252288818359 33.66816329956055 74.75023651123047 38.50833129882812 76.971435546875 C 44.1431770324707 79.62255859375 48.98334121704102 83.63504791259766 52.52318572998047 88.650634765625 L 58.95266342163086 97.67873382568359 C 60.39748764038086 99.75663757324219 62.85369873046875 100.974723815918 65.38214111328125 100.974723815918 L 94.42319488525391 100.974723815918 M 94.42319488525391 101.2747192382812 L 65.38214111328125 101.2747192382812 C 64.08499908447266 101.2747192382812 62.78585433959961 100.9630584716797 61.62516403198242 100.3733978271484 C 60.44755172729492 99.77515411376953 59.4382438659668 98.90258026123047 58.70635223388672 97.84999847412109 L 52.2788200378418 88.82466888427734 C 48.79269790649414 83.88519287109375 43.98701858520508 79.88063049316406 38.38060760498047 77.24288940429688 C 33.44635772705078 74.97852325439453 28.97323799133301 72.02094268798828 25.08807754516602 68.45350646972656 C 23.23553466796875 66.83523559570312 22.1739616394043 64.54539489746094 22.09863090515137 62.00515747070312 C 22.06169700622559 60.75962448120117 22.27889823913574 59.55503463745117 22.74417495727539 58.42486572265625 C 23.20161247253418 57.31376266479492 23.88852310180664 56.29887390136719 24.78581047058105 55.40837478637695 L 28.1126537322998 51.96543502807617 C 32.90754318237305 47.28065490722656 36.65472030639648 41.49662399291992 38.9490966796875 35.23862457275391 L 46.17667388916016 15.81210041046143 C 46.4467658996582 15.14242267608643 47.13786315917969 14.67472267150879 47.8572883605957 14.67472267150879 C 48.06096267700195 14.67472267150879 48.25829696655273 14.71203422546387 48.44379806518555 14.78563404083252 C 48.88810729980469 14.96191215515137 49.25398635864258 15.32211208343506 49.44759750366211 15.77388954162598 C 49.62679290771484 16.19202995300293 49.63823699951172 16.63993835449219 49.47988510131836 17.03568840026855 L 42.25711059570312 36.44961166381836 C 39.81846618652344 43.06556701660156 35.79726409912109 49.27274703979492 30.62856483459473 54.39924621582031 L 27.16097640991211 57.83853530883789 C 26.11698722839355 58.87400054931641 25.51760482788086 60.36062240600586 25.51592445373535 61.9180908203125 C 25.58883857727051 63.54608154296875 26.22781372070312 64.93196868896484 27.36400985717773 65.92631530761719 C 31.11343193054199 69.28751373291016 35.29402160644531 72.06782531738281 39.79233169555664 74.19239044189453 C 45.93784332275391 77.09492492675781 51.22396469116211 81.48923492431641 55.07924270629883 86.90024566650391 L 61.50876617431641 95.92839050292969 C 62.39806365966797 97.14966583251953 63.81975173950195 97.88031005859375 65.30990600585938 97.88031005859375 L 94.35094451904297 97.88031005859375 C 94.61875152587891 97.88031005859375 94.81817626953125 97.78153228759766 94.97855377197266 97.56944274902344 L 94.99143218994141 97.55243682861328 L 95.00657653808594 97.53739929199219 C 95.05304718017578 97.49130249023438 95.19928741455078 97.31301879882812 95.13977813720703 96.94669342041016 L 94.7078857421875 94.94770050048828 C 94.23628997802734 92.67578887939453 92.17231750488281 91.02854156494141 89.79974365234375 91.02854156494141 L 83.08128356933594 91.02854156494141 C 81.67060089111328 91.02854156494141 80.36322784423828 90.33721160888672 79.58338165283203 89.17916870117188 L 66.72580718994141 70.83832550048828 C 65.08428955078125 68.48658752441406 63.82218551635742 65.94631958007812 62.9742317199707 63.28757858276367 C 62.11995315551758 60.60900115966797 61.68679809570312 57.81204605102539 61.68679809570312 54.97441101074219 C 61.68679809570312 52.09083557128906 62.12905502319336 49.23968887329102 63.00128555297852 46.50016784667969 L 63.00394058227539 46.49221038818359 L 73.69361877441406 15.90288257598877 C 73.89968872070312 15.23233222961426 74.57823944091797 14.74636745452881 75.30974578857422 14.74636745452881 C 75.50845336914062 14.74636745452881 75.70128631591797 14.78203773498535 75.8831787109375 14.8524341583252 C 76.30844116210938 14.98304843902588 76.66839599609375 15.29946517944336 76.87225341796875 15.72242259979248 C 77.07485961914062 16.1428165435791 77.09685516357422 16.61981773376465 76.93291473388672 17.03242492675781 L 66.31764221191406 47.61551666259766 C 65.56036376953125 50.09574127197266 65.17646789550781 52.57147216796875 65.17646789550781 54.97441101074219 C 65.17646789550781 59.88633346557617 66.70671081542969 64.68334197998047 69.60175323486328 68.84685516357422 L 82.54457855224609 87.20614624023438 L 82.55453491210938 87.22589111328125 C 82.63440704345703 87.38435363769531 82.87512969970703 87.49083709716797 83.15353393554688 87.49083709716797 L 89.87198638916016 87.49083709716797 C 93.87096405029297 87.49083709716797 97.36675262451172 90.27259063720703 98.18419647216797 94.10523223876953 L 98.61959838867188 96.12151336669922 C 98.84957122802734 97.41408538818359 98.55575561523438 98.63394165039062 97.77003479003906 99.64949798583984 C 97.02404022216797 100.6824111938477 95.80447387695312 101.2747192382812 94.42319488525391 101.2747192382812 Z" stroke="none" fill="#f77a1e"/>
      </g>
      <g id="Path_16805" data-name="Path 16805" transform="translate(-29.193 -26.748)" fill="#f77a1e">
        <path d="M 52.17011642456055 71.33966827392578 C 51.8382453918457 71.33966827392578 51.52665710449219 71.25450134277344 51.29274749755859 71.09983825683594 L 49.12843704223633 69.7403564453125 L 49.11438751220703 69.73152923583984 L 49.10259628295898 69.71984100341797 L 49.03844833374023 69.65621185302734 C 46.85848617553711 68.06410980224609 46.12949371337891 65.22347259521484 47.26584625244141 62.74393844604492 L 49.79459762573242 57.29774856567383 C 50.08442687988281 56.72264099121094 50.66737747192383 56.35383987426758 51.28183746337891 56.35383987426758 C 51.51478576660156 56.35383987426758 51.73884582519531 56.40637969970703 51.94779586791992 56.510009765625 C 52.35772705078125 56.71329879760742 52.67380523681641 57.07284164428711 52.81500625610352 57.4964485168457 C 52.94392776489258 57.88322067260742 52.91640853881836 58.29164886474609 52.73751831054688 58.64651107788086 L 50.21117782592773 64.08767700195312 C 49.72266387939453 65.19524383544922 50.0144157409668 66.38772583007812 50.95552062988281 67.12546539306641 L 53.04342651367188 68.41082000732422 C 53.40207672119141 68.64788055419922 53.65498733520508 69.03018188476562 53.74140548706055 69.46231842041016 C 53.82497787475586 69.88018035888672 53.74731826782227 70.29432678222656 53.5227165222168 70.62847137451172 C 53.2144775390625 71.08708953857422 52.73410797119141 71.33966827392578 52.17011642456055 71.33966827392578 Z" stroke="none"/>
        <path d="M 51.28183746337891 56.50384521484375 C 50.73048400878906 56.50383758544922 50.19507217407227 56.83638000488281 49.93064498901367 57.36091613769531 L 47.40220642089844 62.80642700195312 C 46.31857681274414 65.17092895507812 46.96875762939453 67.96533966064453 49.135986328125 69.54168701171875 L 49.20822525024414 69.61332702636719 L 51.3754768371582 70.97471618652344 C 51.59219741821289 71.11801147460938 51.88115692138672 71.18966674804688 52.17011642456055 71.18966674804688 C 52.67581558227539 71.18966674804688 53.10926818847656 70.97471618652344 53.39822769165039 70.54478454589844 C 53.8316764831543 69.89993286132812 53.61495590209961 68.96847534179688 52.96478652954102 68.53855895996094 L 50.86977767944336 67.24882507324219 C 49.8583984375 66.46067047119141 49.5694465637207 65.17092895507812 50.07512664794922 64.02450561523438 L 52.60357666015625 58.57898712158203 C 52.96478652954102 57.86247253417969 52.60357666015625 57.00264739990234 51.88115692138672 56.64438629150391 C 51.68759155273438 56.54839324951172 51.483642578125 56.50384521484375 51.28183746337891 56.50384521484375 M 51.28183746337891 56.20384216308594 C 51.5380973815918 56.20384216308594 51.78457641601562 56.26164245605469 52.01443481445312 56.37561798095703 C 52.45990753173828 56.59654235839844 52.80356597900391 56.98777008056641 52.95731735229492 57.44902038574219 C 53.09843826293945 57.87239074707031 53.06870651245117 58.31987762451172 52.87366485595703 58.70966339111328 L 50.34837341308594 64.14837646484375 C 49.89020156860352 65.19029235839844 50.1622428894043 66.30845642089844 51.04153823852539 67.00228118896484 L 53.13025665283203 68.28831481933594 C 53.51791763305664 68.54464721679688 53.79428482055664 68.96183776855469 53.88849639892578 69.43290710449219 C 53.97996520996094 69.89027404785156 53.8942756652832 70.34458160400391 53.6472053527832 70.71215057373047 C 53.31021499633789 71.21353912353516 52.78564834594727 71.48966979980469 52.17011642456055 71.48966979980469 C 51.81061172485352 71.48966979980469 51.47092819213867 71.39640808105469 51.21313858032227 71.22702789306641 L 49.02054595947266 69.84970855712891 L 48.94077682495117 69.77059936523438 C 46.70987319946289 68.13467407226562 45.96469497680664 65.22301483154297 47.12948608398438 62.68144226074219 L 49.66275787353516 57.22586822509766 C 49.97574615478516 56.60501098632812 50.61127853393555 56.20384216308594 51.28183746337891 56.20384216308594 Z" stroke="none" fill="#f77a1e"/>
      </g>
    </g>
  </g>
</svg>
